<svg width="498" height="114" viewBox="0 0 498 114" fill="none" xmlns="http://www.w3.org/2000/svg">
<path d="M190.052 69.7424H194.7V97.2803H190.052V69.7424Z" fill="#A6CE39"/>
<path d="M226.924 69.7424H231.55V97.2803H226.503L210.902 77.1916V97.2803H206.276V69.7424H210.902L226.886 90.3064L226.924 69.7424Z" fill="#A6CE39"/>
<path d="M253.553 73.9991V97.2803H248.926V73.9991H240.552V69.7424H261.89V73.9991H253.553Z" fill="#A6CE39"/>
<path d="M290.227 69.7424V74.1084H275.534V81.3977H288.729V85.5324H275.534V92.8974H290.677V97.2718H270.882V69.7424H290.227Z" fill="#A6CE39"/>
<path fill-rule="evenodd" clip-rule="evenodd" d="M316.616 87.2738C320.584 86.0932 322.568 83.2316 322.568 78.689C322.559 75.568 321.652 73.2966 319.846 71.875C318.041 70.4533 315.035 69.7424 310.828 69.7424H300.586V97.2803H305.234V88.0267H311.358L317.937 97.2803H323.826L316.616 87.2738ZM317.798 78.6679C317.801 80.4654 317.328 81.7707 316.381 82.5839C315.438 83.3999 313.652 83.8079 311.022 83.8079H305.234V73.9612H311.144C313.637 73.9584 315.37 74.2935 316.343 74.9665C317.31 75.6367 317.795 76.8705 317.798 78.6679Z" fill="#A6CE39"/>
<path fill-rule="evenodd" clip-rule="evenodd" d="M334.345 97.2803L337.1 91.0173H350.909L353.668 97.2803H358.632L346.476 69.7424H341.512L329.382 97.2803H334.345ZM343.994 75.3703L348.999 86.727H338.993L343.994 75.3703Z" fill="#A6CE39"/>
<path d="M378.935 93.0656C380.355 93.1024 381.767 92.8268 383.069 92.258C384.406 91.5922 385.629 90.7208 386.695 89.6754L389.69 92.7501C386.774 95.9805 383.235 97.5957 379.074 97.5957C374.912 97.5957 371.463 96.2567 368.726 93.5788C365.981 90.898 364.609 87.5093 364.609 83.4124C364.609 79.3156 366.011 75.9016 368.815 73.1704C371.619 70.4392 375.151 69.075 379.41 69.0778C383.496 68.9977 387.41 70.7264 390.102 73.8013L387.158 77.0317C386.085 75.9367 384.824 75.0434 383.435 74.3944C382.128 73.8684 380.727 73.6137 379.318 73.6457C376.716 73.5767 374.194 74.5469 372.31 76.3419C370.422 78.1287 369.389 80.6377 369.471 83.2358C369.401 85.862 370.421 88.4001 372.289 90.2475C374.022 92.0618 376.426 93.0813 378.935 93.0656Z" fill="#A6CE39"/>
<path d="M409.699 73.9991V97.2803H405.072V73.9991H396.702V69.7424H418.052V73.9991H409.699Z" fill="#A6CE39"/>
<path d="M427.032 69.7424H431.68V97.2803H427.032L427.032 69.7424Z" fill="#A6CE39"/>
<path d="M455.828 97.2803H450.629L439.558 69.7424H444.761L453.229 90.3064L461.683 69.7424H466.882L455.828 97.2803Z" fill="#A6CE39"/>
<path d="M494.117 69.7424V74.1084H479.425V81.3977H492.619V85.5324H479.425V92.8974H494.592V97.2718H474.777V69.7424H494.117Z" fill="#A6CE39"/>
<path fill-rule="evenodd" clip-rule="evenodd" d="M33.6414 58.3016C33.776 43.193 48.0392 23.7689 72.3383 13.1483C115.119 -5.54395 139.637 11.6887 145.976 27.9835C151.885 43.172 140.192 69.8391 119.94 89.7091C134.409 79.3493 146.22 68.2197 154.409 57.4141C165.278 43.071 169.774 29.2832 165.644 18.5869C159.545 2.76324 135.704 -2.32202 105.479 1.94304C75.2531 6.2081 52.035 13.6236 33.3891 23.1001C12.6526 33.6366 1.94791 46.1583 0.416859 60.4425C-1.804 81.1874 20.4214 109.07 71.2699 112.507C97.9917 114.315 123.624 114.917 173.249 102.87C167.339 103.059 33.0946 119.737 33.6414 58.3016Z" fill="#A6CE39"/>
<path fill-rule="evenodd" clip-rule="evenodd" d="M83.0094 82.445C94.7065 82.4501 105.255 75.4078 109.735 64.6025C114.214 53.7972 111.744 41.3572 103.474 33.0843C95.2048 24.8113 82.7659 22.335 71.9587 26.8101C61.1514 31.2852 54.1045 41.8304 54.1045 53.5275C54.1369 69.4831 67.0622 82.4103 83.0178 82.445H83.0094Z" fill="#A6CE39"/>
<path fill-rule="evenodd" clip-rule="evenodd" d="M202.553 45.7546H218.263L221.182 52.9724H232.118L215.664 15.815H205.316L188.912 52.9724H199.638L202.553 45.7546ZM210.406 26.1117L215.201 38.0026H205.632L210.406 26.1117Z" fill="#A6CE39"/>
<path d="M273.246 52.9724L273.141 33.279L263.597 49.292H258.945L249.422 33.809V52.9724H239.71V15.815H248.362L261.402 37.2665L274.142 15.815H282.794L282.899 52.9724H273.246Z" fill="#A6CE39"/>
<path d="M299.24 49.2036C296.178 46.1948 294.647 41.9311 294.647 36.4126V15.8024H305.163V36.093C305.163 42.0349 307.515 45.0073 312.221 45.0101C316.926 45.0129 319.262 42.0405 319.228 36.093V15.815H329.58V36.4253C329.58 41.9438 328.048 46.2074 324.986 49.2162C321.924 52.2251 317.634 53.7295 312.115 53.7295C306.594 53.7211 302.302 52.2124 299.24 49.2036Z" fill="#A6CE39"/>
<path d="M345.592 52.6022C343.136 52.021 340.8 51.0146 338.69 49.6284L342.143 41.8765C345.819 44.2117 350.071 45.48 354.425 45.54C358.458 45.54 360.474 44.532 360.474 42.5158C360.474 41.4516 359.902 40.6651 358.749 40.1519C356.954 39.4453 355.099 38.9033 353.206 38.5326C350.828 38.0488 348.487 37.4024 346.198 36.5977C344.333 35.9165 342.671 34.775 341.365 33.279C340.025 31.7564 339.353 29.7038 339.35 27.1212C339.327 24.9367 339.974 22.7975 341.205 20.9928C342.448 19.1673 344.297 17.7246 346.753 16.6647C349.21 15.6047 352.227 15.0733 355.805 15.0705C358.235 15.076 360.657 15.3583 363.023 15.9117C365.221 16.3946 367.333 17.2087 369.286 18.3261L366.051 26.1285C362.507 24.2077 359.07 23.2473 355.742 23.2473C353.656 23.2473 352.134 23.5572 351.178 24.1769C350.304 24.6618 349.756 25.5785 349.744 26.5786C349.744 27.5713 350.312 28.3116 351.426 28.8079C353.197 29.4896 355.028 30.0049 356.894 30.3473C359.282 30.8259 361.632 31.4739 363.927 32.2864C365.782 32.9721 367.442 34.1014 368.76 35.5756C370.14 37.0898 370.83 39.1382 370.83 41.7208C370.851 43.8802 370.203 45.9932 368.975 47.7693C367.735 49.5752 365.877 51.0179 363.401 52.0975C360.925 53.1771 357.917 53.7169 354.375 53.7169C351.412 53.7241 348.46 53.3495 345.592 52.6022Z" fill="#A6CE39"/>
<path d="M415.617 15.815V52.9724H406.965L390.561 33.1739V52.9724H380.268V15.815H388.916L405.32 35.6135V15.815H415.617Z" fill="#A6CE39"/>
<path d="M457.502 44.8502V52.9724H427.668V15.815H456.812V23.9371H438.074V30.2001H454.579V38.0573H438.074V44.8502H457.502Z" fill="#A6CE39"/>
<path d="M475.866 24.1474H464.451V15.815H497.734V24.1474H486.377V52.9724H475.862L475.866 24.1474Z" fill="#A6CE39"/>
</svg>
