<svg width="881" height="222" viewBox="0 0 881 222" fill="none" xmlns="http://www.w3.org/2000/svg">
<path d="M49.4445 93.292C42.3618 93.292 35.7912 92.1827 29.7325 89.964C23.7592 87.66 18.5538 84.4173 14.1165 80.236C9.7645 76.0547 6.35117 71.148 3.8765 65.516C1.40183 59.7987 0.1645 53.5267 0.1645 46.7C0.1645 39.8733 1.40183 33.644 3.8765 28.012C6.35117 22.2947 9.7645 17.3453 14.1165 13.164C18.5538 8.98266 23.7592 5.78266 29.7325 3.564C35.7912 1.25999 42.3618 0.107994 49.4445 0.107994C57.7218 0.107994 65.1032 1.55866 71.5885 4.46C78.1592 7.36133 83.6205 11.5427 87.9725 17.004L71.8445 31.596C68.9432 28.1827 65.7432 25.58 62.2445 23.788C58.8312 21.996 54.9912 21.1 50.7245 21.1C47.0552 21.1 43.6845 21.6973 40.6125 22.892C37.5405 24.0867 34.8952 25.836 32.6765 28.14C30.5432 30.3587 28.8365 33.0467 27.5565 36.204C26.3618 39.3613 25.7645 42.86 25.7645 46.7C25.7645 50.54 26.3618 54.0387 27.5565 57.196C28.8365 60.3533 30.5432 63.084 32.6765 65.388C34.8952 67.6067 37.5405 69.3133 40.6125 70.508C43.6845 71.7027 47.0552 72.3 50.7245 72.3C54.9912 72.3 58.8312 71.404 62.2445 69.612C65.7432 67.82 68.9432 65.2173 71.8445 61.804L87.9725 76.396C83.6205 81.772 78.1592 85.9533 71.5885 88.94C65.1032 91.8413 57.7218 93.292 49.4445 93.292ZM159.177 1.89999H184.521V91.5H159.177V1.89999ZM124.617 91.5H99.2725V1.89999H124.617V91.5ZM160.969 56.556H122.825V35.564H160.969V56.556ZM202.398 91.5V1.89999H243.358C251.55 1.89999 258.59 3.22266 264.478 5.868C270.451 8.51333 275.059 12.3533 278.302 17.388C281.544 22.3373 283.166 28.2253 283.166 35.052C283.166 41.7933 281.544 47.6387 278.302 52.588C275.059 57.452 270.451 61.2067 264.478 63.852C258.59 66.412 251.55 67.692 243.358 67.692H216.478L227.742 57.068V91.5H202.398ZM257.822 91.5L235.55 58.86H262.558L284.958 91.5H257.822ZM227.742 59.756L216.478 48.108H241.822C247.112 48.108 251.038 46.956 253.598 44.652C256.243 42.348 257.566 39.148 257.566 35.052C257.566 30.8707 256.243 27.628 253.598 25.324C251.038 23.02 247.112 21.868 241.822 21.868H216.478L227.742 10.22V59.756ZM297.148 91.5V1.89999H322.492V91.5H297.148ZM372.011 93.292C364.672 93.292 357.589 92.396 350.763 90.604C344.021 88.7267 338.517 86.3373 334.251 83.436L342.571 64.748C346.581 67.308 351.189 69.4413 356.395 71.148C361.685 72.7693 366.933 73.58 372.139 73.58C375.637 73.58 378.453 73.2813 380.587 72.684C382.72 72.0013 384.256 71.148 385.195 70.124C386.219 69.0147 386.731 67.7347 386.731 66.284C386.731 64.236 385.792 62.6147 383.915 61.42C382.037 60.2253 379.605 59.244 376.619 58.476C373.632 57.708 370.304 56.94 366.635 56.172C363.051 55.404 359.424 54.4227 355.755 53.228C352.171 52.0333 348.885 50.4973 345.899 48.62C342.912 46.6573 340.48 44.14 338.603 41.068C336.725 37.9107 335.786 33.9427 335.786 29.164C335.786 23.788 337.237 18.924 340.139 14.572C343.125 10.22 347.563 6.72133 353.451 4.076C359.339 1.43066 366.677 0.107994 375.467 0.107994C381.355 0.107994 387.115 0.790662 392.747 2.156C398.464 3.436 403.541 5.356 407.979 7.91599L400.171 26.732C395.904 24.428 391.68 22.7213 387.499 21.612C383.317 20.4173 379.264 19.82 375.339 19.82C371.84 19.82 369.024 20.204 366.891 20.972C364.757 21.6547 363.221 22.5933 362.283 23.788C361.344 24.9827 360.875 26.348 360.875 27.884C360.875 29.8467 361.771 31.4253 363.562 32.62C365.44 33.7293 367.872 34.668 370.859 35.436C373.931 36.1187 377.259 36.844 380.843 37.612C384.512 38.38 388.139 39.3613 391.723 40.556C395.392 41.6653 398.72 43.2013 401.707 45.164C404.693 47.0413 407.083 49.5587 408.875 52.716C410.752 55.788 411.691 59.6707 411.691 64.364C411.691 69.5693 410.197 74.3907 407.211 78.828C404.309 83.18 399.915 86.6787 394.027 89.324C388.224 91.9693 380.885 93.292 372.011 93.292ZM441.22 91.5V21.996H413.7V1.89999H493.956V21.996H466.564V91.5H441.22ZM503.398 91.5V1.89999H524.262L561.382 62.828H550.374L586.47 1.89999H607.334L607.59 91.5H584.294L584.038 37.356H588.006L560.998 82.668H549.734L521.958 37.356H526.822V91.5H503.398ZM614.77 91.5L654.323 1.89999H679.283L718.963 91.5H692.595L661.619 14.316H671.603L640.627 91.5H614.77ZM636.403 74.092L642.931 55.404H686.707L693.235 74.092H636.403ZM757.636 93.292C750.297 93.292 743.214 92.396 736.388 90.604C729.646 88.7267 724.142 86.3373 719.876 83.436L728.196 64.748C732.206 67.308 736.814 69.4413 742.02 71.148C747.31 72.7693 752.558 73.58 757.764 73.58C761.262 73.58 764.078 73.2813 766.212 72.684C768.345 72.0013 769.881 71.148 770.82 70.124C771.844 69.0147 772.356 67.7347 772.356 66.284C772.356 64.236 771.417 62.6147 769.54 61.42C767.662 60.2253 765.23 59.244 762.244 58.476C759.257 57.708 755.929 56.94 752.26 56.172C748.676 55.404 745.049 54.4227 741.38 53.228C737.796 52.0333 734.51 50.4973 731.524 48.62C728.537 46.6573 726.105 44.14 724.228 41.068C722.35 37.9107 721.411 33.9427 721.411 29.164C721.411 23.788 722.862 18.924 725.764 14.572C728.75 10.22 733.188 6.72133 739.076 4.076C744.964 1.43066 752.302 0.107994 761.092 0.107994C766.98 0.107994 772.74 0.790662 778.372 2.156C784.089 3.436 789.166 5.356 793.604 7.91599L785.796 26.732C781.529 24.428 777.305 22.7213 773.124 21.612C768.942 20.4173 764.889 19.82 760.964 19.82C757.465 19.82 754.649 20.204 752.516 20.972C750.382 21.6547 748.846 22.5933 747.908 23.788C746.969 24.9827 746.5 26.348 746.5 27.884C746.5 29.8467 747.396 31.4253 749.188 32.62C751.065 33.7293 753.497 34.668 756.484 35.436C759.556 36.1187 762.884 36.844 766.468 37.612C770.137 38.38 773.764 39.3613 777.348 40.556C781.017 41.6653 784.345 43.2013 787.332 45.164C790.318 47.0413 792.708 49.5587 794.5 52.716C796.377 55.788 797.316 59.6707 797.316 64.364C797.316 69.5693 795.822 74.3907 792.836 78.828C789.934 83.18 785.54 86.6787 779.652 89.324C773.849 91.9693 766.51 93.292 757.636 93.292ZM840.511 93.292C833.172 93.292 826.089 92.396 819.263 90.604C812.521 88.7267 807.017 86.3373 802.751 83.436L811.071 64.748C815.081 67.308 819.689 69.4413 824.895 71.148C830.185 72.7693 835.433 73.58 840.639 73.58C844.137 73.58 846.953 73.2813 849.087 72.684C851.22 72.0013 852.756 71.148 853.695 70.124C854.719 69.0147 855.231 67.7347 855.231 66.284C855.231 64.236 854.292 62.6147 852.415 61.42C850.537 60.2253 848.105 59.244 845.119 58.476C842.132 57.708 838.804 56.94 835.135 56.172C831.551 55.404 827.924 54.4227 824.255 53.228C820.671 52.0333 817.385 50.4973 814.399 48.62C811.412 46.6573 808.98 44.14 807.103 41.068C805.225 37.9107 804.287 33.9427 804.287 29.164C804.287 23.788 805.737 18.924 808.639 14.572C811.625 10.22 816.063 6.72133 821.951 4.076C827.839 1.43066 835.177 0.107994 843.967 0.107994C849.855 0.107994 855.615 0.790662 861.247 2.156C866.964 3.436 872.041 5.356 876.479 7.91599L868.671 26.732C864.404 24.428 860.18 22.7213 855.999 21.612C851.817 20.4173 847.764 19.82 843.839 19.82C840.34 19.82 837.524 20.204 835.391 20.972C833.257 21.6547 831.721 22.5933 830.783 23.788C829.844 24.9827 829.375 26.348 829.375 27.884C829.375 29.8467 830.271 31.4253 832.063 32.62C833.94 33.7293 836.372 34.668 839.359 35.436C842.431 36.1187 845.759 36.844 849.343 37.612C853.012 38.38 856.639 39.3613 860.223 40.556C863.892 41.6653 867.22 43.2013 870.207 45.164C873.193 47.0413 875.583 49.5587 877.375 52.716C879.252 55.788 880.191 59.6707 880.191 64.364C880.191 69.5693 878.697 74.3907 875.711 78.828C872.809 83.18 868.415 86.6787 862.527 89.324C856.724 91.9693 849.385 93.292 840.511 93.292ZM205.085 219.5V129.9H246.045C254.237 129.9 261.277 131.223 267.165 133.868C273.138 136.513 277.746 140.353 280.989 145.388C284.232 150.337 285.853 156.225 285.853 163.052C285.853 169.793 284.232 175.639 280.989 180.588C277.746 185.452 273.138 189.207 267.165 191.852C261.277 194.412 254.237 195.692 246.045 195.692H219.165L230.429 185.068V219.5H205.085ZM260.509 219.5L238.237 186.86H265.245L287.645 219.5H260.509ZM230.429 187.756L219.165 176.108H244.509C249.8 176.108 253.725 174.956 256.285 172.652C258.93 170.348 260.253 167.148 260.253 163.052C260.253 158.871 258.93 155.628 256.285 153.324C253.725 151.02 249.8 149.868 244.509 149.868H219.165L230.429 138.22V187.756ZM341.179 221.292C327.952 221.292 317.627 217.665 310.203 210.412C302.779 203.159 299.067 192.876 299.067 179.564V129.9H324.411V178.796C324.411 186.476 325.904 191.98 328.891 195.308C331.963 198.636 336.144 200.3 341.435 200.3C346.726 200.3 350.864 198.636 353.851 195.308C356.838 191.98 358.331 186.476 358.331 178.796V129.9H383.291V179.564C383.291 192.876 379.579 203.159 372.155 210.412C364.731 217.665 354.406 221.292 341.179 221.292ZM424.012 169.196H465.356V188.78H424.012V169.196ZM425.804 219.5H400.46V129.9H470.732V149.484H425.804V219.5ZM506.137 169.196H547.481V188.78H506.137V169.196ZM507.929 219.5H482.585V129.9H552.857V149.484H507.929V219.5ZM564.71 219.5V129.9H590.054V199.404H632.806V219.5H564.71ZM666.131 164.588H707.731V183.532H666.131V164.588ZM667.923 199.916H714.771V219.5H642.835V129.9H713.107V149.484H667.923V199.916Z" fill="white"/>
</svg>
